<?xml version="1.0" encoding="UTF-8" standalone="no"?>
<!DOCTYPE svg PUBLIC "-//W3C//DTD SVG 20010904//EN" "http://www.w3.org/TR/2001/REC-SVG-20010904/DTD/svg10.dtd">
<svg xmlns="http://www.w3.org/2000/svg" width="560" height="200" viewBox="0 0 560 200">
    <g id="logo-ufc" fill="#000000" stroke="none">
        <path id="letter-u" d="M 56.06,12.21 16.35,160 C 12.05,176 22.1,189.1 38.66,189.1 L 142.4,189.1 C 156.3,189.1 170.7,178.1 174.3,164.6 L 215.2,12.21 155.3,12.21 119.8,131.5 C 117.3,139.8 108.4,146.7 99.68,146.7 90.97,146.7 85.69,139.8 88.18,131.5 L 123.6,12.21 56.06,12.21 Z" />
        <g id="letter-f">
            <path id="letter-f-top" d="M 244.8,10 232.3,53.37 297.5,53.37 297.5,53.25 366.5,53.37 379.3,10 244.8,10 Z" />
            <path id="letter-f-bottom" d="M 225.3,77.35 193.2,189.1 258.5,189.1 277.8,118.6 347.2,118.6 359.4,77.35 225.3,77.35 Z" />
        </g>
        <path id="letter-c" d="M 425.4,10.42 C 413.3,10.42 400.9,19.81 397.9,31.29 L 363.5,161.7 C 359.4,177.3 369.5,190 385.9,190 L 479.1,190 C 492,190 505.1,180 508.4,167.8 L 514.2,146.8 435.1,146.8 C 431,146.8 428.6,143.5 429.7,139.5 L 454.2,50.9 C 455.3,46.94 459.5,43.69 463.5,43.69 L 542.3,43.69 544,37.22 C 548.5,20.77 526.6,10.42 513.7,10.42 L 425.4,10.42 Z" />
    </g>
</svg>